<svg id="knowledge" xmlns="http://www.w3.org/2000/svg" width="375" height="306.784" viewBox="0 0 375 306.784">
  <path id="Path" d="M370.527,26.466H4.473A4.486,4.486,0,0,1,0,21.993V4.473A4.486,4.486,0,0,1,4.473,0H370.527A4.486,4.486,0,0,1,375,4.473v17.52A4.486,4.486,0,0,1,370.527,26.466Z" transform="translate(0 280.318)" fill="#f7f7f7"/>
  <ellipse id="Oval" cx="124.503" cy="124.503" rx="124.503" ry="124.503" transform="translate(65.979 37.649)" fill="#f3faff"/>
  <g id="Group" transform="translate(331.014 173.335)">
    <path id="Path-2" data-name="Path" d="M13.765,76.491c2.647-6.747,5.331-14.24,2.833-21.024-.6-1.64-1.528-3.392-.969-5.07.746-2.274,3.728-3.057,4.7-5.219,1.118-2.386-.634-5.144-.186-7.716.447-2.609,3.019-4.324,5.517-5.256s5.219-1.528,7.232-3.243c3.839-3.355,3.392-9.356,2.535-14.426-.857-5.032-1.491-11,2.2-14.538C30.838,1.3,23.9,2.647,18.015,6.225S7.429,16.141,7.764,23.037C7.95,26.5,9.292,30.194,7.727,33.25c-1.715,3.318-6.3,4.622-7.455,8.164C-1.07,45.477,2.918,49.2,4.484,53.193c1.491,3.765.783,7.977,1.118,11.966.335,4.026,2.423,8.574,6.412,9.17Z" transform="translate(0.027 0.261)" fill="#fbbe4b"/>
    <g id="Group-2" data-name="Group" opacity="0.31">
      <path id="Path-3" data-name="Path" d="M13.765,76.491c2.647-6.747,5.331-14.24,2.833-21.024-.6-1.64-1.528-3.392-.969-5.07.746-2.274,3.728-3.057,4.7-5.219,1.118-2.386-.634-5.144-.186-7.716.447-2.609,3.019-4.324,5.517-5.256s5.219-1.528,7.232-3.243c3.839-3.355,3.392-9.356,2.535-14.426-.857-5.032-1.491-11,2.2-14.538C30.838,1.3,23.9,2.647,18.015,6.225S7.429,16.141,7.764,23.037C7.95,26.5,9.292,30.194,7.727,33.25c-1.715,3.318-6.3,4.622-7.455,8.164C-1.07,45.477,2.918,49.2,4.484,53.193c1.491,3.765.783,7.977,1.118,11.966.335,4.026,2.423,8.574,6.412,9.17Z" transform="translate(0.027 0.261)" fill="#fff"/>
    </g>
    <path id="Path-4" data-name="Path" d="M0,67.507C-.073,47.9,3.729,6.859,26.355,0" transform="translate(11.07 0.41)" fill="none" stroke="#fff" stroke-linecap="round" stroke-miterlimit="10" stroke-width="0.75"/>
  </g>
  <g id="Group-3" data-name="Group" transform="translate(290.383 162.152)">
    <path id="Path-5" data-name="Path" d="M38.469,86.295c-4.026-7.53-8.2-15.917-6.225-24.23.485-2.013,1.3-4.175.447-6.076-1.156-2.535-4.771-3.094-6.225-5.48-1.6-2.609.037-6.113-.857-9.058-.895-3.019-4.138-4.622-7.157-5.405-3.019-.746-6.3-1.044-8.909-2.833C4.585,29.821,4.287,22.7,4.585,16.7S4.809,3.616,0,0C8.126.6,16.439,1.23,23.82,4.622S37.612,14.8,38.134,22.925c.261,4.063-.82,8.574,1.454,11.966,2.46,3.653,8.014,4.548,9.878,8.536,2.125,4.585-2.013,9.468-3.318,14.351-1.193,4.585.186,9.431.335,14.165s-1.677,10.363-6.262,11.63Z" transform="translate(0.186 0)" fill="#fbbe4b"/>
    <path id="Path-6" data-name="Path" d="M40.147,75.41C37.537,52.411,27.473,4.883,0,0" transform="translate(0.485 0.149)" fill="none" stroke="#fff" stroke-linecap="round" stroke-miterlimit="10" stroke-width="0.75"/>
  </g>
  <path id="Path-7" data-name="Path" d="M42.868,60.015H7.455a4.486,4.486,0,0,1-4.473-4.473L0,4.473A4.486,4.486,0,0,1,4.473,0H45.85a4.486,4.486,0,0,1,4.473,4.473L47.341,55.542A4.486,4.486,0,0,1,42.868,60.015Z" transform="translate(311.63 232.604)" fill="#cce9ff"/>
  <g id="Group-4" data-name="Group" transform="translate(33.176 108.847)">
    <rect id="Rectangle" width="23.111" height="103.628" transform="translate(0.205 21.584) rotate(-8.62)" fill="#fbbe4b"/>
    <rect id="Rectangle-2" data-name="Rectangle" width="11.556" height="103.628" transform="translate(11.622 19.861) rotate(-8.62)" fill="#fbbe4b"/>
    <path id="Path-8" data-name="Path" d="M22.85,18.042,0,21.508,5.368,7.753,8.424,0l5.219,6.523Z" transform="translate(0.224 0.186)" fill="#ffebc2"/>
    <path id="Path-9" data-name="Path" d="M8.275,6.523,0,7.753,3.057,0Z" transform="translate(5.591 0.186)" fill="#0e538c"/>
  </g>
  <g id="Group-5" data-name="Group" transform="translate(65.234 84.617)">
    <rect id="Rectangle-3" data-name="Rectangle" width="23.111" height="103.627" transform="matrix(0.996, 0.089, -0.089, 0.996, 9.248, 18.779)" fill="#fbbe4b"/>
    <rect id="Rectangle-4" data-name="Rectangle" width="11.555" height="103.627" transform="matrix(0.996, 0.089, -0.089, 0.996, 20.78, 19.819)" fill="#fbbe4b"/>
    <path id="Path-10" data-name="Path" d="M23.037,20.949,0,18.9,8.5,6.822,13.308,0l3.5,7.567Z" transform="translate(9.239)" fill="#ffebc2"/>
    <path id="Path-11" data-name="Path" d="M8.313,7.567,0,6.822,4.809,0Z" transform="translate(17.738)" fill="#0e538c"/>
  </g>
  <path id="Path-12" data-name="Path" d="M102.7,140.532H11.891L0,0H109.965Z" transform="translate(10.065 152.46)" fill="#cce9ff"/>
  <path id="Path-13" data-name="Path" d="M0,140.532H47.714L54.983,0H0Z" transform="translate(65.047 152.46)" fill="#cce9ff" opacity="0.5"/>
  <rect id="Rectangle-5" data-name="Rectangle" width="230.741" height="31.722" transform="translate(84.99 253.33)" fill="#ffebc2"/>
  <path id="Path-14" data-name="Path" d="M12.525,6.822V38.544H254.6v2.386a5.548,5.548,0,0,1-5.741,5.331H13.569C6.076,46.26,0,40.668,0,33.735V12.525C0,5.591,6.076,0,13.569,0H248.857A5.548,5.548,0,0,1,254.6,5.331V6.859H12.525Z" transform="translate(73.434 246.508)" fill="#fbbe4b"/>
  <rect id="Rectangle-6" data-name="Rectangle" width="230.741" height="17.557" transform="translate(84.99 267.458)" fill="#ffebc2"/>
  <rect id="Rectangle-7" data-name="Rectangle" width="187.5" height="27.584" transform="translate(114.811 214.712)" fill="#cce9ff"/>
  <path id="Path-15" data-name="Path" d="M10.065,5.927V33.511H204.647V35.6a4.621,4.621,0,0,1-4.622,4.622H10.885A10.9,10.9,0,0,1,0,29.336V10.885A10.9,10.9,0,0,1,10.885,0h189.14a4.646,4.646,0,0,1,4.622,4.622V5.964H10.065Z" transform="translate(104.747 208.785)" fill="#2a94f4"/>
  <path id="Path-16" data-name="Path" d="M67.945,34.806a9.911,9.911,0,0,1-.373-11.593c1.938-2.833,3.243-6.337,3.094-8.909A15.182,15.182,0,0,0,63.584,2.9,18.085,18.085,0,0,0,35.738,15.944c-.522,4.361.485,9.133-1.752,12.935-1.64,2.721-4.66,4.324-7.642,5.405-3.019,1.044-6.188,1.752-8.946,3.355S12.291,42,12.329,45.206c.037,2.423,1.417,4.66,1.566,7.045.224,3.5-2.237,6.6-4.846,8.909C6.4,63.472,3.382,65.485,1.593,68.5c-2.945,5-1.566,11.742,2.162,16.215s9.319,6.971,14.911,8.424C33.949,97.17,50.052,94.56,65.82,94.3c4.883-.075,9.878.075,14.612-1.156s9.356-4.063,11.332-8.536c2.013-4.473,1.006-9.916-1.677-13.979s-6.9-7.008-11.332-9.1c-3.206-1.528-6.635-2.721-9.245-5.107s-4.138-6.449-2.386-9.543c.671-1.193,1.789-2.125,2.423-3.318,1.267-2.311.746-5.256-.671-7.493C68.616,35.7,68.318,35.291,67.945,34.806Z" transform="translate(127.905 86.006)" fill="#0e538c"/>
  <rect id="Rectangle-8" data-name="Rectangle" width="187.5" height="15.283" transform="translate(114.811 227.013)" fill="#cce9ff"/>
  <path id="Path-17" data-name="Path" d="M25.162,0,48.273,16.4,76.6,74.925H71.384L39.7,23.111s-10.81.373-14.538-2.982S0,2.237,0,2.237Z" transform="translate(174.267 187.873)" fill="#0b4870"/>
  <path id="Path-18" data-name="Path" d="M1.76,0C-2.452,11.407.53,27.435,14.7,28.181s18.638,0,18.638,0L60.918,84.1h6.337L45.634,21.471,19.355,6.933Z" transform="translate(156.776 183.176)" fill="#0e538c"/>
  <path id="Path-19" data-name="Path" d="M2.237,0C5.964,4.846,14.911,18.265,18.265,33.176S30.939,69.707,30.939,69.707H20.129L9.692,34.294,0,1.118Z" transform="translate(177.808 118.166)" fill="#4ea3fb"/>
  <path id="Path-20" data-name="Path" d="M17.269,7.418c.559,9.133-3.429,15.4-9.133,15.693S-1.295,15.134.42,7.418C4.408.559,9.851,0,9.851,0H13.28Z" transform="translate(174.257 90.954)" fill="#ffe3ca"/>
  <path id="Path-21" data-name="Path" d="M16.141,3.094A13.191,13.191,0,0,1,9.8,10.624a13.173,13.173,0,0,1-9.8.969L8.126,0H15.1l6.672,5.293-1.006,6.076C18.154,9.394,16.141,3.094,16.141,3.094Z" transform="translate(171.583 89.836)" fill="#0e538c"/>
  <path id="Path-22" data-name="Path" d="M7.9,8.052a36.676,36.676,0,0,0-.82,10.214C5.964,19.756.746,19.384,0,14.165A135.422,135.422,0,0,1,3.355,0L5.219,4.1Z" transform="translate(172.776 104.933)" fill="#ffe3ca"/>
  <path id="Path-23" data-name="Path" d="M21.061,0C16.4,1.528.746,8.611,0,10.1c1.118,4.1,6.71,64.861,6.71,64.861H32.058S28.7,41.414,30.567,39.177s7.828-10.065,7.083-11.183S27.435,2.833,27.435,2.833Z" transform="translate(152.46 115.147)" fill="#2a94f4"/>
  <path id="Path-24" data-name="Path" d="M15.1,0C11.448,2.8-3.909,27.957.937,41.377S21.625,62.7,21.625,62.7V55.318S8.765,45.1,9.51,37.649,19.2,14.911,19.2,14.911Z" transform="translate(137.359 125.249)" fill="#4ea3fb"/>
  <path id="Path-25" data-name="Path" d="M59.493,41.377H4.622a3.15,3.15,0,0,1-3.131-3.131L0,3.131A3.15,3.15,0,0,1,3.131,0H60.239A3.15,3.15,0,0,1,63.37,3.131l-.746,35.114A3.15,3.15,0,0,1,59.493,41.377Z" transform="translate(153.019 153.019)" fill="#fbbe4b"/>
  <path id="Path-26" data-name="Path" d="M5.914,0C9.6.82,14.6,4.883,16.985,6.971A.705.705,0,0,1,16.5,8.2C12.661,8.126,3.975,7.716,1.962,6-.647,3.765.1.037.1.037H5.914Z" transform="translate(217.222 267.271)" fill="#1a87d8"/>
  <path id="Path-27" data-name="Path" d="M5.486.261c3.28.895,7.6,4.7,9.766,6.747A.692.692,0,0,1,14.731,8.2C11.115,7.94,3.361,7.232,1.609,5.554-.7,3.392.156,0,.156,0Z" transform="translate(245.309 262.388)" fill="#1a87d8"/>
  <circle id="Oval-2" data-name="Oval" cx="5.591" cy="5.591" r="5.591" transform="translate(179.299 169.116)" fill="#fff"/>
  <path id="Path-28" data-name="Path" d="M14.165,26.093l-7.083-4.1L0,26.093V0H14.165Z" transform="translate(121.521 227.013)" fill="#fbbe4b"/>
  <path id="Path-29" data-name="Path" d="M29.523,5.107a2.827,2.827,0,0,1-.708,1.864,2.756,2.756,0,0,1,.708,1.864v2.311a2.935,2.935,0,0,1-.373,1.379,2.935,2.935,0,0,1,.373,1.379v2.311a2.752,2.752,0,0,1-2.758,2.758H2.758A2.752,2.752,0,0,1,0,16.215V13.867a2.935,2.935,0,0,1,.373-1.379A2.935,2.935,0,0,1,0,11.108V8.8A2.827,2.827,0,0,1,.708,6.933,2.756,2.756,0,0,1,0,5.07V2.758A2.752,2.752,0,0,1,2.758,0H26.764a2.752,2.752,0,0,1,2.758,2.758Z" transform="translate(215.979 93.489)" fill="#fbbe4b"/>
  <path id="Path-30" data-name="Path" d="M67.843,33.921a33.978,33.978,0,0,1-19.16,30.567V77.013a1.734,1.734,0,0,1-1.715,1.715H20.875a1.734,1.734,0,0,1-1.715-1.715V64.488A33.931,33.931,0,1,1,67.843,33.921Z" transform="translate(196.819 12.413)" fill="#fbbe4b"/>
  <path id="Path-31" data-name="Path" d="M22.739.186H0" transform="translate(219.558 100.46)" fill="none" stroke="#7f7f7f" stroke-linecap="round" stroke-miterlimit="10" stroke-width="2" opacity="0.23"/>
  <path id="Path-32" data-name="Path" d="M22.739.186H0" transform="translate(219.558 105.678)" fill="none" stroke="#7f7f7f" stroke-linecap="round" stroke-miterlimit="10" stroke-width="2" opacity="0.23"/>
  <path id="Shape" d="M7.749,41.058H6.63c-.256-11.928.1-24.231,1.044-36.568a1.048,1.048,0,0,0,.037-.336A8.349,8.349,0,0,1,6.8,3.68c-.115-.066-.234-.133-.351-.2a8.132,8.132,0,0,1-1.267.671,1.052,1.052,0,0,1,.037.336c.949,12.331,1.3,24.635,1.044,36.568H5.14C5.4,29.174,5.044,16.9,4.1,4.564a4.87,4.87,0,0,1-1.126.14,4.2,4.2,0,0,1-.737-.065A2.917,2.917,0,0,1,.07,2.551,2.068,2.068,0,0,1,.629.5,2.114,2.114,0,0,1,2,0a2.341,2.341,0,0,1,.273.016A2.9,2.9,0,0,1,4.282,1.172a4.409,4.409,0,0,1,.745,1.864c.337-.187.672-.373,1.044-.6l.112-.075h.485l.112.075c.25.167.519.312.779.453l.265.144a4.41,4.41,0,0,1,.745-1.864A2.953,2.953,0,0,1,10.582.016,2.357,2.357,0,0,1,10.857,0a2.017,2.017,0,0,1,1.365.5,2.152,2.152,0,0,1,.6,2.05,2.978,2.978,0,0,1-2.163,2.088,3.161,3.161,0,0,1-.724.081,4.672,4.672,0,0,1-1.139-.156c-.949,12.294-1.3,24.572-1.044,36.493ZM10.885,1.122a.932.932,0,0,0-.155.013,1.873,1.873,0,0,0-1.23.707,3.8,3.8,0,0,0-.6,1.641,3.408,3.408,0,0,0,1,.165,2.209,2.209,0,0,0,.495-.054,1.84,1.84,0,0,0,1.305-1.3,1.068,1.068,0,0,0-.186-.932A.956.956,0,0,0,10.885,1.122Zm-8.914.013a.889.889,0,0,0-.634.223.846.846,0,0,0-.224.932,1.912,1.912,0,0,0,1.3,1.3,3.592,3.592,0,0,0,.514.037,3.646,3.646,0,0,0,1.015-.149,3.355,3.355,0,0,0-.6-1.641A1.773,1.773,0,0,0,2.12,1.135Z" transform="translate(224.334 50.009)" fill="#fff"/>
  <path id="Path-33" data-name="Path" d="M20.568,0c-8.2,2.982-21.62,13.792-20.5,31.312" transform="translate(201.227 18.638)" fill="none" stroke="#fff" stroke-linecap="round" stroke-miterlimit="10" stroke-width="4"/>
  <ellipse id="Oval-3" data-name="Oval" cx="9.505" cy="9.505" rx="9.505" ry="9.505" transform="translate(167.371 60.388)" fill="#fbbe4b"/>
  <ellipse id="Oval-4" data-name="Oval" cx="4.287" cy="4.287" rx="4.287" ry="4.287" transform="translate(274.354 34.294)" fill="#fbbe4b"/>
  <circle id="Oval-5" data-name="Oval" cx="7.083" cy="7.083" r="7.083" transform="translate(257.58 98.782)" fill="#fbbe4b"/>
  <ellipse id="Oval-6" data-name="Oval" cx="7.083" cy="7.083" rx="7.083" ry="7.083" transform="translate(189.737 0)" fill="#fbbe4b"/>
  <path id="Path-34" data-name="Path" d="M14.165,26.093l-7.083-4.1L0,26.093V0H14.165Z" transform="translate(121.521 227.013)" fill="#0c0c0c" opacity="0.14"/>
</svg>
