<svg xmlns="http://www.w3.org/2000/svg" width="376.506" height="345.213" viewBox="0 0 376.506 345.213">
  <g id="media-player" transform="translate(1.196)">
    <ellipse id="Oval" cx="54.635" cy="54.635" rx="54.635" ry="54.635" transform="translate(265.54 113.108)" fill="none" stroke="#d3d3d3" stroke-miterlimit="10" stroke-width="1" stroke-dasharray="11.887 11.887"/>
    <path id="Path" d="M79.978,20.881c-9.764,4.293-19.491,9.5-26.33,17.705S43.389,58.571,47.493,68.411c5.471,13.146,22.834,20.821,22.948,35.068.038,10.22-9.384,18.009-18.883,21.733S31.5,130.265,22.873,135.7C9.8,143.905,3.686,159.749,1.178,174.946c-2.584,15.805-1.558,33.777,9.612,45.213,13.906,14.248,36.854,12.652,56.5,9.612,26.216-4.065,52.356-8.815,78.457-13.564Q231.63,200.535,317.478,184.9c6.155-1.1,12.538-2.356,17.515-6.079,9.916-7.447,10.752-22.834,4.977-33.777-5.775-10.98-16.413-18.427-26.976-24.886s-21.733-12.538-29.673-22.074-11.854-23.632-5.851-34.46c5.091-9.195,16-14.1,20.745-23.442,6.269-12.31-.95-28.078-12.31-35.942C274.506-3.7,131.649-1.726,79.978,20.881Z" transform="translate(12.842 7.463)" fill="#f7f7f7"/>
    <path id="Path-2" data-name="Path" d="M349.126,30.281H4.217A4.232,4.232,0,0,1,0,26.064V4.217A4.232,4.232,0,0,1,4.217,0H349.164a4.232,4.232,0,0,1,4.217,4.217V26.064A4.29,4.29,0,0,1,349.126,30.281Z" transform="translate(7.979 314.932)" fill="#f2f2f2"/>
    <g id="Group">
      <path id="Path-3" data-name="Path" d="M352.2,4.559V177.052a4.573,4.573,0,0,1-4.559,4.559H4.559A4.573,4.573,0,0,1,0,177.052V4.559A4.573,4.573,0,0,1,4.559,0H347.644A4.6,4.6,0,0,1,352.2,4.559Z" transform="translate(0.304 9.498)" fill="none" stroke="#b0e1ff" stroke-miterlimit="10" stroke-width="3"/>
      <path id="Path-4" data-name="Path" d="M352.2,4.559V177.052a4.573,4.573,0,0,1-4.559,4.559H4.559A4.573,4.573,0,0,1,0,177.052V4.559A4.573,4.573,0,0,1,4.559,0H347.644A4.573,4.573,0,0,1,352.2,4.559Z" transform="translate(9.195)" fill="#e9f7ff"/>
      <path id="Path-5" data-name="Path" d="M352.2,3V15.578H0V3C0,1.33,2.052,0,4.559,0H347.644C350.152,0,352.2,1.368,352.2,3Z" transform="translate(9.195)" fill="#2390e2"/>
      <ellipse id="Oval-2" data-name="Oval" cx="3.04" cy="3.04" rx="3.04" ry="3.04" transform="translate(346.049 5.699)" fill="#e9f7ff"/>
      <ellipse id="Oval-3" data-name="Oval" cx="3.04" cy="3.04" rx="3.04" ry="3.04" transform="translate(335.79 5.699)" fill="#e9f7ff"/>
      <ellipse id="Oval-4" data-name="Oval" cx="3.04" cy="3.04" rx="3.04" ry="3.04" transform="translate(325.532 5.699)" fill="#e9f7ff"/>
    </g>
    <g id="Group-2" data-name="Group" transform="translate(10.638 258.359)">
      <g id="Group-3" data-name="Group">
        <path id="Path-6" data-name="Path" d="M21.277,28.837A44.131,44.131,0,0,0,0,0,175.519,175.519,0,0,0,20.479,30.509Z" transform="translate(0 17.059)" fill="#1a87d8"/>
        <path id="Path-7" data-name="Path" d="M14.423,49.734A78.176,78.176,0,0,1,.138,0,265.488,265.488,0,0,1,15.069,50.266Z" transform="translate(9.741 0.684)" fill="#2a94f4"/>
        <path id="Path-8" data-name="Path" d="M1.14,50.19c-.3-8.815-.608-17.667.76-26.368S6.459,6.5,12.386,0A95.9,95.9,0,0,1,0,51.938Z" transform="translate(20.099 0.722)" fill="#1a87d8"/>
        <path id="Path-9" data-name="Path" d="M3.741,51.482A69.574,69.574,0,0,1,6.324,0c4.635,16.679.532,34.422-3.571,51.254Z" transform="translate(17.916 0.228)" fill="#b0e1ff"/>
        <path id="Path-10" data-name="Path" d="M1.938,34.081A43.3,43.3,0,0,1,26.634,0,90.817,90.817,0,0,1,0,37.652Z" transform="translate(20.479 11.436)" fill="#2a94f4"/>
      </g>
      <path id="Path-11" data-name="Path" d="M27.926,2.47,26.254,30.813a2.465,2.465,0,0,1-2.47,2.47H4.141a2.465,2.465,0,0,1-2.47-2.47l-.38-6.421L0,2.47A2.465,2.465,0,0,1,2.47,0H25.456a2.506,2.506,0,0,1,2.128,1.216h0A2.3,2.3,0,0,1,27.926,2.47Z" transform="translate(8.245 40.502)" fill="#cce9ff"/>
      <path id="Path-12" data-name="Path" d="M26.634,1.292,24.962,29.635a2.465,2.465,0,0,1-2.47,2.47H2.85a2.465,2.465,0,0,1-2.47-2.47L0,23.214C9.157,20.593,18.617,9.271,26.292,0A2.527,2.527,0,0,1,26.634,1.292Z" transform="translate(9.536 41.679)" fill="#cce9ff"/>
    </g>
    <ellipse id="Oval-5" data-name="Oval" cx="39.514" cy="39.514" rx="39.514" ry="39.514" transform="translate(146.657 53.191)" fill="#fbbe4b"/>
    <circle id="Oval-6" data-name="Oval" cx="39.514" cy="39.514" r="39.514" transform="translate(149.126 48.822)" fill="none" stroke="#fff" stroke-miterlimit="10" stroke-width="1"/>
    <path id="Path-13" data-name="Path" d="M33.359,15.805,0,0V31.611Z" transform="translate(173.632 76.9)" fill="#fff"/>
    <g id="Group-4" data-name="Group" transform="translate(144.757 99.544)">
      <path id="Path-14" data-name="Path" d="M3.414,11.512l.038-2.242S6.872,4.559,1.667,0C.717,3.381-.347,6.5.109,7.637A11.125,11.125,0,0,0,1.325,9.8l-.152,2.052.342.874,1.1.228Z" transform="translate(75.613 1.558)" fill="#ffe3ca"/>
      <path id="Path-15" data-name="Path" d="M.381,10.9.647,8.739S-2.051,3.723,3.572,0c.494,3.419,1.1,6.535.494,7.6A11.3,11.3,0,0,1,2.622,9.536L2.508,11.55l-.456.8-1.1.076Z" transform="translate(1.139 0.114)" fill="#ffe3ca"/>
      <path id="Path-16" data-name="Path" d="M7.258.76c-3.116,4.749-8.321,16-7.067,18.579S6,20.555,7.372,19.377c.684-.608,6.8-11.322,6.915-13.64S10.678,0,10.678,0Z" transform="translate(23.897 205.167)" fill="#0a3e5b"/>
      <path id="Path-17" data-name="Path" d="M0,2.584,3.191,13.868l4.179-.228L6.687,0Z" transform="translate(28.116 195.859)" fill="#ffe3ca"/>
      <path id="Path-18" data-name="Path" d="M.443,1.164C-.317,6.369-.241,17.805,1.81,19.477s5.357-1.254,6-2.774c.342-.8,1.216-12.158.418-14.134A4.411,4.411,0,0,0,6.636.9a5.2,5.2,0,0,0-6.193.266Z" transform="translate(49.975 160.918)" fill="#0a3e5b"/>
      <path id="Path-19" data-name="Path" d="M0,7.029,9.65,10.6l.3-4.559L1.52,0Z" transform="translate(41.527 156.687)" fill="#ffe3ca"/>
      <path id="Path-20" data-name="Path" d="M1.345,11C-.44,21.369-2.682,92.228,10.92,114.379c8.7-1.178,10.182-2.014,10.182-2.014S26.687,68.1,26.231,37.1c4.9-15.729,2.736-20.289.646-25.418C18.709-8.076,13.161,3.208,13.161,3.208Z" transform="translate(16.55 86.761)" fill="#0a3e5b"/>
      <path id="Path-21" data-name="Path" d="M24.218,2.812C17.341,9.992-6.1,44.225,1.5,51.862s39.59,24.316,39.59,24.316c.228-3.419,2.812-12.31,2.812-12.31S31.019,41.3,19.7,42.971c6.687-3.419,14.666-12.044,20.213-18.655a14.038,14.038,0,0,0,.684-17.135L35.464,0Z" transform="translate(3.859 93.313)" fill="#0b4870"/>
      <path id="Path-22" data-name="Path" d="M34.043,43.085c9.5-.456,24.924-3.078,42.211-40.805,3.457.608,3.609.494,3.609.494S72.872,36.246,49.316,52.242c-4.6,7.447-7.713,13.564-8.207,18.921C40.691,75.8,51.558,90.919,54.1,95.745c-6,1.824-24.316.418-30.661,3s-11.36-7.067-11.36-7.067,6.079-12.158,5.851-17.1-.19-6.877-.646-8.4-2.394-9.764.114-12.956C14.514,48.442,1.748,29.369,0,1.33L4.1,0s2.432,36.512,24.43,43.047C32.751,46.847,34.043,43.085,34.043,43.085Z" transform="translate(0.304 9.764)" fill="#fbbe4b"/>
      <path id="Path-23" data-name="Path" d="M.04,9.5,0,10.9a3.277,3.277,0,0,0,6.117,1.748h0L8.7,2.052,3.612,0Z" transform="translate(28.455 45.175)" fill="#fcd2b1"/>
      <path id="Path-24" data-name="Path" d="M34.633,21.925c-2.622-5.167-.114-11.892-2.964-16.945A10.441,10.441,0,0,0,22.4,0a14.651,14.651,0,0,0-9.84,4.483A26.923,26.923,0,0,1,8.873,8.019a4.748,4.748,0,0,1-4.825.57c-.874-.494-1.482-1.406-2.546-1.6a1.3,1.3,0,0,0-1.216.38C-.359,8.095.21,9.083.78,9.8c1.064,1.368,2.166,2.774,3.267,4.141,1.368,1.71,2.888,3.5,5.015,3.989,1.52.38,3.153.038,4.673.38a12.271,12.271,0,0,1,4.407,2.546,18.769,18.769,0,0,0,8.131,3.761,9.907,9.907,0,0,0,8.4-2.394" transform="translate(15.443 24.01)" fill="#0e538c"/>
      <path id="Path-25" data-name="Path" d="M15.588,9.528c-.76,4.483-5.167,9.84-9.46,9.119-4.255-.722-6.725-7.181-6-11.7A8.031,8.031,0,0,1,9.205.105,8.1,8.1,0,0,1,15.588,9.528Z" transform="translate(26.699 30.898)" fill="#ffe3ca"/>
      <path id="Path-26" data-name="Path" d="M0,1.953A14.74,14.74,0,0,0,11.778,12.781a1.551,1.551,0,0,0,1.1-.114c.57-.38.418-1.254.19-1.9A25.841,25.841,0,0,0,9.992,3.928,8.68,8.68,0,0,0,3.837.015C2.394-.1.76.433.228,1.763Z" transform="translate(30.585 28.215)" fill="#0e538c"/>
    </g>
    <path id="Path-27" data-name="Path" d="M41.413,45.973H4.559A4.573,4.573,0,0,1,0,41.413V4.559A4.573,4.573,0,0,1,4.559,0H41.413a4.573,4.573,0,0,1,4.559,4.559V41.413A4.573,4.573,0,0,1,41.413,45.973Z" transform="translate(21.657 26.216)" fill="#b0e1ff"/>
    <path id="Path-28" data-name="Path" d="M46.2,17.135H2.888A2.886,2.886,0,0,1,0,14.248V2.888A2.886,2.886,0,0,1,2.888,0H46.2a2.886,2.886,0,0,1,2.888,2.888v11.36A2.886,2.886,0,0,1,46.2,17.135Z" transform="translate(236.664 26.178)" fill="#b0e1ff"/>
    <path id="Path-29" data-name="Path" d="M46.2,17.135H2.888A2.886,2.886,0,0,1,0,14.248V2.888A2.886,2.886,0,0,1,2.888,0H46.2a2.886,2.886,0,0,1,2.888,2.888v11.36A2.886,2.886,0,0,1,46.2,17.135Z" transform="translate(238.906 28.837)" fill="none" stroke="#fff" stroke-miterlimit="10" stroke-width="1"/>
    <path id="Path-30" data-name="Path" d="M46.2,17.135H2.888A2.886,2.886,0,0,1,0,14.248V2.888A2.886,2.886,0,0,1,2.888,0H46.2a2.886,2.886,0,0,1,2.888,2.888v11.36A2.886,2.886,0,0,1,46.2,17.135Z" transform="translate(299.734 26.178)" fill="#b0e1ff"/>
    <path id="Path-31" data-name="Path" d="M46.2,17.135H2.888A2.886,2.886,0,0,1,0,14.248V2.888A2.886,2.886,0,0,1,2.888,0H46.2a2.886,2.886,0,0,1,2.888,2.888v11.36A2.886,2.886,0,0,1,46.2,17.135Z" transform="translate(301.976 28.837)" fill="none" stroke="#fff" stroke-miterlimit="10" stroke-width="1"/>
    <path id="Path-32" data-name="Path" d="M80.889,6.5H2.318A2.327,2.327,0,0,1,0,4.179V2.318A2.327,2.327,0,0,1,2.318,0H80.927a2.327,2.327,0,0,1,2.318,2.318V4.179A2.36,2.36,0,0,1,80.889,6.5Z" transform="translate(75.988 45.935)" fill="#b0e1ff"/>
    <path id="Path-33" data-name="Path" d="M67.4,6.421H2.09A2.108,2.108,0,0,1,0,4.331V2.09A2.108,2.108,0,0,1,2.09,0H67.363a2.108,2.108,0,0,1,2.09,2.09V4.331A2.051,2.051,0,0,1,67.4,6.421Z" transform="translate(75.988 55.889)" fill="#b0e1ff"/>
    <path id="Path-34" data-name="Path" d="M53.723,6.421H1.862A1.865,1.865,0,0,1,0,4.559v-2.7A1.865,1.865,0,0,1,1.862,0H53.685a1.865,1.865,0,0,1,1.862,1.862v2.7A1.809,1.809,0,0,1,53.723,6.421Z" transform="translate(75.988 65.767)" fill="#b0e1ff"/>
    <path id="Path-35" data-name="Path" d="M109.8,6.459H2.66A2.667,2.667,0,0,1,0,3.8V2.66A2.667,2.667,0,0,1,2.66,0H109.8a2.667,2.667,0,0,1,2.66,2.66v1.1A2.7,2.7,0,0,1,109.8,6.459Z" transform="translate(236.702 144.757)" fill="#b0e1ff"/>
    <path id="Path-36" data-name="Path" d="M91.489,6.421H2.432A2.449,2.449,0,0,1,0,3.989V2.432A2.449,2.449,0,0,1,2.432,0H91.489a2.449,2.449,0,0,1,2.432,2.432V3.989A2.449,2.449,0,0,1,91.489,6.421Z" transform="translate(236.702 154.673)" fill="#b0e1ff"/>
    <path id="Path-37" data-name="Path" d="M72.948,6.5H2.2A2.205,2.205,0,0,1,0,4.293V2.2A2.205,2.205,0,0,1,2.2,0H72.948a2.205,2.205,0,0,1,2.2,2.2v2.09A2.205,2.205,0,0,1,72.948,6.5Z" transform="translate(236.702 164.476)" fill="#b0e1ff"/>
    <g id="Group-5" data-name="Group" transform="translate(305.471 230.623)">
      <g id="Group-6" data-name="Group">
        <path id="Path-38" data-name="Path" d="M29.331,39.78A60.916,60.916,0,0,0,0,0,245.214,245.214,0,0,0,28.267,42.135Z" transform="translate(0.076 23.252)" fill="#1a87d8"/>
        <path id="Path-39" data-name="Path" d="M19.884,68.617A107.368,107.368,0,0,1,.2,0,361.766,361.766,0,0,1,20.8,69.339Z" transform="translate(13.513 0.646)" fill="#2a94f4"/>
        <path id="Path-40" data-name="Path" d="M1.6,69.263C1.178,57.1.722,44.871,2.66,32.9,4.559,20.9,8.967,9,17.135,0A132.051,132.051,0,0,1,0,71.657Z" transform="translate(27.774 0.684)" fill="#1a87d8"/>
        <path id="Path-41" data-name="Path" d="M5.147,71.049A96.187,96.187,0,0,1,8.718,0c6.383,23.024.722,47.492-4.9,70.745Z" transform="translate(24.793)" fill="#b0e1ff"/>
        <path id="Path-42" data-name="Path" d="M2.66,47.036A59.856,59.856,0,0,1,36.74,0,124.881,124.881,0,0,1,0,51.938Z" transform="translate(28.343 15.502)" fill="#2a94f4"/>
      </g>
      <path id="Path-43" data-name="Path" d="M38.564,3.419l-2.28,39.134a3.429,3.429,0,0,1-3.419,3.419H5.737a3.429,3.429,0,0,1-3.419-3.419L1.786,33.7,0,3.419A3.429,3.429,0,0,1,3.419,0H35.106a3.432,3.432,0,0,1,2.926,1.672h0A3.064,3.064,0,0,1,38.564,3.419Z" transform="translate(11.436 55.585)" fill="#cce9ff"/>
      <path id="Path-44" data-name="Path" d="M36.778,1.748,34.5,40.881A3.429,3.429,0,0,1,31.079,44.3H3.951A3.429,3.429,0,0,1,.532,40.881L0,32.029C12.652,28.419,25.684,12.766,36.284,0A3.354,3.354,0,0,1,36.778,1.748Z" transform="translate(13.222 57.257)" fill="#cce9ff"/>
    </g>
  </g>
</svg>
