<svg xmlns="http://www.w3.org/2000/svg" width="374.41" height="174.831" viewBox="0 0 374.41 174.831">
  <g id="messaging" transform="translate(-0.068 -0.383)">
    <ellipse id="Oval" cx="187.205" cy="9.219" rx="187.205" ry="9.219" transform="translate(0.068 156.775)" fill="#f7f7f7"/>
    <path id="Path" d="M136.448,0H0V78.795H18.927C27.274,84.955,41.02,95.058,41.069,94.81s.031-9.882.015-16.015h95.364V0Z" transform="translate(68.458 3.609)" fill="#fbbe4b"/>
    <rect id="Rectangle" width="109.863" height="8.007" transform="translate(81.608 20.976)" fill="#f7f7f7"/>
    <rect id="Rectangle-2" data-name="Rectangle" width="109.863" height="8.007" transform="translate(81.608 36.493)" fill="#f7f7f7"/>
    <rect id="Rectangle-3" data-name="Rectangle" width="109.863" height="8.007" transform="translate(81.608 52.01)" fill="#f7f7f7"/>
    <path id="Path-2" data-name="Path" d="M136.449,0H0V78.795H18.927C27.274,84.955,41.02,95.058,41.069,94.81s.031-9.882.015-16.015h95.364V0Z" transform="translate(178.21 36.493)" fill="#fbbe4b"/>
    <rect id="Rectangle-4" data-name="Rectangle" width="109.863" height="8.007" transform="translate(191.36 53.861)" fill="#f7f7f7"/>
    <rect id="Rectangle-5" data-name="Rectangle" width="109.863" height="8.007" transform="translate(191.36 69.378)" fill="#f7f7f7"/>
    <path id="Path-3" data-name="Path" d="M11.824,0V.391L6.787,6.561l-2.73,2.07L.083,6.478,0,6.244Z" transform="translate(76.12 61.317)" fill="#0e538c"/>
    <path id="Path-4" data-name="Path" d="M7.1,8.214l4.721-5.742L6.221,0,0,8.716l4.82,2.573Z" transform="translate(76.12 58.845)" fill="#0e538c"/>
    <rect id="Rectangle-6" data-name="Rectangle" width="109.863" height="8.007" transform="translate(191.36 84.895)" fill="#f7f7f7"/>
    <path id="Path-5" data-name="Path" d="M4.934,0l4.6,1.988L4.45,8.631,0,6.674Z" transform="translate(77.583 59.422)" fill="#f7f7f7"/>
    <ellipse id="Oval-2" data-name="Oval" cx="0.654" cy="0.654" rx="0.654" ry="0.654" transform="translate(78.706 67.321)" fill="#f7f7f7"/>
    <g id="Group" transform="translate(33.563 36.79)">
      <path id="Path-6" data-name="Path" d="M.708,1.206.722,5.127A8.555,8.555,0,0,1,.4,7.487L.059,8.694a1.549,1.549,0,0,0,1.5,1.972c2.671-.01,7.235,0,8.411,0a.384.384,0,0,0,.4-.321c.1-1.145-3.207-1.911-5.7-2.875-1.9-.735-1.8-4.144-1.562-6.135A1.2,1.2,0,0,0,1.81,0h0A1.2,1.2,0,0,0,.708,1.206Z" transform="translate(21.046 116.619)" fill="#fab9af"/>
      <path id="Path-7" data-name="Path" d="M2.851.956,1.5,5.441A2.071,2.071,0,0,1,1.235,6L.277,7.422a1.62,1.62,0,0,0,.871,2.454s1.931.679,3.922,1.333c2.038.669,4.6.11,4.6-.428,0-1.195-1.114-.247-2.98-1.494-.625-.418-1.271-.856-1.846-1.307-1.606-1.261-.2-4.452.78-6.249a1.1,1.1,0,0,0-.742-1.6L4.416.03A1.342,1.342,0,0,0,2.851.956Z" transform="translate(0.549 115.769)" fill="#fab9af"/>
      <path id="Path-8" data-name="Path" d="M0,1.242,14.8,0s1.49,10.772-2.25,30.272C10.8,39.416,7.14,56.89,7.14,56.89a4.2,4.2,0,0,1-2.766.262S4.1,49.444,3.927,41.144c-.163-7.961-.207-16.467-.714-19.25C2.177,16.208,0,1.242,0,1.242Z" transform="translate(17.2 63.016)" fill="#0e538c"/>
      <path id="Path-9" data-name="Path" d="M17.562,3.591c1.528,8.2,4.941,20.464-1.634,31.984s-13.481,23.5-13.481,23.5A3.742,3.742,0,0,1,0,58.216s1.153-5.223,2.819-11.321C4.726,39.918,7.14,31.713,6.452,27.434c-1.29-8.018-2.771-18.7-2.322-23.884S16.758-.722,17.562,3.591Z" transform="translate(2.693 60.856)" fill="#0e538c"/>
      <path id="Path-10" data-name="Path" d="M0,3.83s2.03-.971,2.921-1.479S6.1,1.147,6.29.982s6.795-.573,7.2-.918.79.81-.923,1.186-4.1,1.293-4.228,1.963,1.759.828,1.951,1.379-.054.429-.324.546-2.248-.977-3.117-.665-2.2-.119-2.865.108S.074,5.9.074,5.9Z" transform="translate(28.11 27.823)" fill="#fab9af"/>
      <path id="Path-11" data-name="Path" d="M2.3,3.374l1.046-.387S2.043-.073,1.474,0A14.363,14.363,0,0,0,0,.3Z" transform="translate(29.472 29.711)" fill="#f7f7f7"/>
      <path id="Path-12" data-name="Path" d="M6.687,4.108C6.552,4.009,4.464,0,4.464,0L0,.605,2.412,5.353Z" transform="translate(25.326 29.507)" fill="#da9b5b"/>
      <path id="Path-13" data-name="Path" d="M1.921,11.688s1.705-1.534,2.53-2.177,2.375-2.531,2.6-2.64S10.239.689,10.722.447,10.266-.615,9.245.854s-2.813,3.358-3.5,3.22-.1-1.981-.54-2.375-.424-.117-.641.092.045,2.5-.587,3.2S3.238,7.107,2.764,7.646,0,10.815,0,10.815Z" transform="translate(41.677 27.84)" fill="#fab9af"/>
      <path id="Path-14" data-name="Path" d="M3.2.469s5.118-1.912,7.478,1.985,2.133,11.693-.448,12.653-6.454.457-7.775-1.98S-.055,7.166,0,4.81A5.131,5.131,0,0,1,3.2.469Z" transform="translate(13.202 1.179)" fill="#fab9af"/>
      <path id="Path-15" data-name="Path" d="M8.22,4.858s-.413,3.673-.061,4.355-6.389,0-6.389,0A51.407,51.407,0,0,0,.087.787C-.987-2.339,8.22,4.858,8.22,4.858Z" transform="translate(14.66 11.607)" fill="#fab9af"/>
      <path id="Path-16" data-name="Path" d="M1.971,11.805s.248,3.943,2.215,3.634,4.6-6.072,5.422-6.36.829-.77.829-.77l.514.751.872.056s-.8-2.341.4-3.3S10.983-1.758,4.674.447c0,0-4.845,1.336-4.67,4.091S.887,10.434,1.971,11.805Z" transform="translate(12.776 0.589)" fill="#0e538c"/>
      <path id="Path-17" data-name="Path" d="M7.842,1.913S7.82.614,7.23.487.723-.206,0,.079V1.594S1.394,2.452,7.842,1.913Z" transform="translate(15.776 19.726)" fill="#f7f7f7"/>
      <path id="Path-18" data-name="Path" d="M1.839,1C1.728.542.553-.779.1.636s.68,3.316,1.311,3.152S2.119,2.177,1.839,1Z" transform="translate(21.245 6.892)" fill="#eea886"/>
      <path id="Path-19" data-name="Path" d="M1.19,48.885A54.1,54.1,0,0,0,9.68,50.4c5.352.59,18.724-.212,18.809-.845s-2.876-23.546-2.708-24.725.258-5.384.258-5.384A29.63,29.63,0,0,0,28.7,27.867c.511.927,2.229,3.831,3.056,3.17,4.006-3.2,10.21-15.252,10.6-15.353-.331-.144-2.94-1.345-3.307-1.466-.32-.107-3.21,2.952-4.962,4.849-.781.846-1.335,1.46-1.335,1.46-.506-1.138-2.348-8.306-2.92-10.786-1.291-5.595-1.093-5.827-1.093-5.827-3.915-1.184-9.858-3.6-9.858-3.6L11.039,0S3.842,1.584,1.008,2.864C.738,2.986.738,9.285,0,10.936l2.35,4.958s1.357,9.821,1.639,14.189C4.119,32.088,1.19,48.885,1.19,48.885Z" transform="translate(4.737 21.32)" fill="#2a94f4"/>
      <path id="Path-20" data-name="Path" d="M.618,16.252a3.1,3.1,0,0,0,1.738,1.463,2.246,2.246,0,0,0,1.256.126l.307-.056h0l5.374-1S10.469,3.245,1.952,0C1.727.074-1.263,10.188.618,16.252Z" transform="translate(3.793 24.184)" fill="#2a94f4"/>
      <path id="Path-21" data-name="Path" d="M2.9,0s-6.44.653-.115,10.43Z" transform="translate(12.052 2.107)" fill="#0e538c"/>
    </g>
    <path id="Path-22" data-name="Path" d="M1.571,1.326.194.656A.346.346,0,0,1,.035.194h0A.345.345,0,0,1,.5.035L1.873.7a.346.346,0,0,1,.159.461h0A.345.345,0,0,1,1.571,1.326Z" transform="translate(82.153 60.065)" fill="#2a94f4"/>
    <path id="Path-23" data-name="Path" d="M1.571,1.326.194.656A.346.346,0,0,1,.035.194h0A.346.346,0,0,1,.5.035L1.873.7a.346.346,0,0,1,.159.461h0A.346.346,0,0,1,1.571,1.326Z" transform="translate(80.217 62.681)" fill="#2a94f4"/>
    <path id="Path-24" data-name="Path" d="M1.571,1.326.194.656A.346.346,0,0,1,.035.194h0A.346.346,0,0,1,.5.035L1.873.7a.346.346,0,0,1,.159.461h0A.345.345,0,0,1,1.571,1.326Z" transform="translate(79.632 63.536)" fill="#2a94f4"/>
    <path id="Path-25" data-name="Path" d="M1.571,1.326.194.656A.346.346,0,0,1,.035.194h0A.346.346,0,0,1,.5.035L1.873.7a.346.346,0,0,1,.159.461h0A.346.346,0,0,1,1.571,1.326Z" transform="translate(83.265 61.713)" fill="#2a94f4"/>
    <path id="Path-26" data-name="Path" d="M1.571,1.326.194.656A.346.346,0,0,1,.035.194h0A.346.346,0,0,1,.5.035L1.873.7a.346.346,0,0,1,.159.461h0A.345.345,0,0,1,1.571,1.326Z" transform="translate(82.616 62.588)" fill="#2a94f4"/>
    <path id="Path-27" data-name="Path" d="M1.571,1.326.194.656A.346.346,0,0,1,.035.194h0A.346.346,0,0,1,.5.035L1.873.7a.346.346,0,0,1,.159.461h0A.345.345,0,0,1,1.571,1.326Z" transform="translate(80.574 65.235)" fill="#2a94f4"/>
    <path id="Path-28" data-name="Path" d="M5.39,0S3.1,5.71,2.638,6.651A5.06,5.06,0,0,1,.8,8.416a3.313,3.313,0,0,0-.667.843.94.94,0,0,0-.067.84c1.8,4.91,7.3,6.885,7.43,6.516.232-.665-.583-2-1.736-2.673a3.958,3.958,0,0,1-1.881-3.3h0a6.211,6.211,0,0,1,.683-3.076L6.805,3.315Z" transform="translate(312.329 147.309)" fill="#fa968c"/>
    <path id="Path-29" data-name="Path" d="M0,1.241l1.373,6.1a8,8,0,0,1-.742,5.509h0a1.747,1.747,0,0,0,.952,2.472c3.256,1.162,9.571,3.371,9.853,3.132,1.435-1.217-2.359-3.221-5.163-5.329C4.381,11.7,3.658,5.08,3.491,0L.483.757A.7.7,0,0,0,0,1.241Z" transform="translate(325.63 153.217)" fill="#fa968c"/>
    <path id="Path-30" data-name="Path" d="M5.508,2.33a22.039,22.039,0,0,0,4.181.755.874.874,0,0,1,.428.176c1.3,1.007,1.955,2.02,1.194,2.665C11,6.185,3.586,3.557.693,2.519A1.048,1.048,0,0,1,.126,1.033L.677,0A21.581,21.581,0,0,0,5.508,2.33Z" transform="translate(325.892 165.995)" fill="#0e538c"/>
    <path id="Path-31" data-name="Path" d="M10.661.037C7.075.527,4.019,4.661,4.65,9.278A141.529,141.529,0,0,0,10.2,28.933,8.708,8.708,0,0,1,8.86,37.441a7.453,7.453,0,0,0-.813,1.187C6.915,40.712,2.558,53.026,0,61.242a4.7,4.7,0,0,0,1.65,2.914c4.5-6.977,11.817-19.714,13.021-21.931A39.042,39.042,0,0,0,16.6,38.233c2.914-3.856,2.349-25.4,1.765-29.682C17.739,3.935,14.248-.452,10.661.037Z" transform="translate(317.528 86.523)" fill="#0e538c"/>
    <path id="Path-32" data-name="Path" d="M0,1.734S3.107,3.689,2.729,6.323c0,0,1.659-1.175,2.034-5.222C5.024-1.7,0,1.734,0,1.734Z" transform="translate(329.166 49.546)" fill="#0e538c"/>
    <path id="Path-33" data-name="Path" d="M4.519,2.368A10.853,10.853,0,0,0,5.212,7.13a4.872,4.872,0,0,0,3.2,2.759,11.237,11.237,0,0,0,5.193.091,23.431,23.431,0,0,0,5.384-1.764l.006,0a.649.649,0,0,1,.645,1.119,22.6,22.6,0,0,1-5.425,2.873,13.5,13.5,0,0,1-6.467.8,8.255,8.255,0,0,1-3.4-1.275,8.536,8.536,0,0,1-2.6-2.7A13.894,13.894,0,0,1,0,2.367a2.262,2.262,0,1,1,4.518-.212c0,.06,0,.12,0,.179Z" transform="translate(330.952 64.962)" fill="#efa8a0"/>
    <path id="Path-34" data-name="Path" d="M13.791,17.2c1.243-3.746,3.744-11.678,3.53-14.271A3.2,3.2,0,0,0,14.129,0H3.316A3.309,3.309,0,0,0,0,3.214C-.087,6.345,1.356,13.473,2.168,17.2Z" transform="translate(318.853 63.775)" fill="#2a94f4"/>
    <path id="Path-35" data-name="Path" d="M13.6,64.421a.559.559,0,0,0,.259-.5c-.229-7.953-.712-18.09-.887-20.033-.02-.222-.046-.441-.079-.656,1.7-9.4,1.961-29.613,2.131-33.152.223-4.654-2.58-9.9-6.2-10.078S1.283,3.575.122,7.839c-.766,2.814,2.2,17.788,5.406,28.64a16.5,16.5,0,0,1,.441,7.045,20.944,20.944,0,0,0-.19,4.6c.172,1.912,2.314,9.7,4.322,16.363a.558.558,0,0,0,.409.389A4.118,4.118,0,0,0,13.6,64.421Z" transform="translate(315.458 90.113)" fill="#0e538c"/>
    <path id="Path-36" data-name="Path" d="M3.01,21.952a10.279,10.279,0,0,0,.492-4.9C2.957,13.218,2,6,2.091,2.935A3.023,3.023,0,0,1,5.119,0h1.6a4.054,4.054,0,0,0,3.917,2.511A4.055,4.055,0,0,0,14.553,0h1.506a9.708,9.708,0,0,0,1.767,10.821c-.523,1.849-.963,3.709-1.292,5.218a10.2,10.2,0,0,0,.556,6.1c1.382,3.317,2.477,8.635,2.151,10.743C7.866,36.107,0,30.4,0,30.4Z" transform="translate(316.774 63.776)" fill="#2a94f4"/>
    <path id="Path-37" data-name="Path" d="M4.9,5.883,0,5.367,1.552,0,4.725.392Z" transform="translate(324.261 58.637)" fill="#fab9af"/>
    <path id="Path-38" data-name="Path" d="M3.658.392.485,0,0,1.676c.71.8,1.623,2.531,2.777,2.531a1.835,1.835,0,0,0,1-.294Z" transform="translate(325.328 58.637)" fill="#fa968c"/>
    <path id="Path-39" data-name="Path" d="M5.452,10.344C4.375,10.344,3.21,9.806,1.6,8.4A4.865,4.865,0,0,1,0,5.245V0H8.076a14.944,14.944,0,0,1,.018,5.549C7.653,7.623,6.3,10.344,5.452,10.344Z" transform="translate(323.643 51.28)" fill="#fab9af"/>
    <path id="Path-40" data-name="Path" d="M2.365,1.853c0,1.024-.49,1.853-1.094,1.853S0,2.365,0,1.341A1.2,1.2,0,0,1,1.271,0C1.874,0,2.365.829,2.365,1.853Z" transform="translate(322.648 53.681)" fill="#fab9af"/>
    <path id="Path-41" data-name="Path" d="M0,3.851A2.965,2.965,0,0,1,2.966.886H5.692a4.457,4.457,0,0,0,2.2-.58,2.162,2.162,0,0,1,2.833.526c.709.962,1.016,2.25-.782,3.443-.894.593-2.2-.064-3.072.221-.054,0-.1-.011-.157-.011H4.31A1.52,1.52,0,0,0,2.812,6a.98.98,0,0,1-.98.951H1.726L1.341,5.723,0,7.531V3.851Z" transform="translate(322.647 48.064)" fill="#0e538c"/>
    <path id="Path-42" data-name="Path" d="M10.2,2.216c-.27,1.2.129,1.854-3.8,3.724S1.226,7.011,0,9.025c0,0,.536-3.336,2.706-4.481S8.638,2.651,9.844,0A5.086,5.086,0,0,1,10.2,2.216Z" transform="translate(320.921 48.973)" fill="#0e538c"/>
    <path id="Path-43" data-name="Path" d="M.015.843A7.583,7.583,0,0,0,3.691,6.818S2.137,3.767,2.243,1.773-.218-.535.015.843Z" transform="translate(330.347 50.568)" fill="#0e538c"/>
    <path id="Path-44" data-name="Path" d="M.178,2.351a.719.719,0,0,1-.009-.937C.356,1.192.855.582,1.229.125A.344.344,0,0,1,1.808.2C3.062,2.827,5.156,4.872,7.886,5.248A2.923,2.923,0,0,1,9.152,7.725a3.558,3.558,0,0,1-2.529-.589C.968,3.9.178,2.351.178,2.351Z" transform="translate(310.92 156.458)" fill="#0e538c"/>
    <path id="Path-45" data-name="Path" d="M4.531,2.49l-.01.334c0,.136,0,.273,0,.415,0,.281.02.567.046.851a13.486,13.486,0,0,0,.269,1.687A9.445,9.445,0,0,0,6.08,8.827,8.082,8.082,0,0,0,8.3,11.16,11.142,11.142,0,0,0,11.427,12.6a17.081,17.081,0,0,0,3.658.616,33.019,33.019,0,0,0,3.878-.038,58.637,58.637,0,0,0,7.9-1.21l.008,0a.648.648,0,0,1,.381,1.233,44.043,44.043,0,0,1-7.945,2.508,23.044,23.044,0,0,1-8.668.319,13.478,13.478,0,0,1-4.4-1.567A11.863,11.863,0,0,1,2.6,11.227,13.745,13.745,0,0,1,.537,6.874,16.111,16.111,0,0,1,.1,4.552C.055,4.161.023,3.77.008,3.371,0,3.174,0,2.971,0,2.768s.006-.385.03-.683a2.256,2.256,0,0,1,4.505.236Z" transform="translate(318.69 63.084)" fill="#fab9af"/>
    <path id="Path-46" data-name="Path" d="M3.808,8.371H1.094A1.094,1.094,0,0,1,0,7.277V1.094A1.094,1.094,0,0,1,1.094,0H3.808A1.094,1.094,0,0,1,4.9,1.094V7.277A1.094,1.094,0,0,1,3.808,8.371Z" transform="translate(345.753 67.33)" fill="#2a94f4"/>
    <circle id="Oval-3" data-name="Oval" cx="0.405" cy="0.405" r="0.405" transform="translate(346.243 68.444)" fill="#f7f7f7"/>
    <path id="Path-47" data-name="Path" d="M18.457,0H0V12.085H6.729l2.884,3.46,2.576-3.46h6.268Z" transform="translate(278.124 3.609)" fill="#f7f7f7"/>
    <path id="Path-48" data-name="Path" d="M18.456,0H0V12.085H6.729l2.884,3.46,2.577-3.46h6.267Z" transform="translate(131.903 110.828)" fill="#f7f7f7"/>
    <g id="Group-2" data-name="Group" transform="translate(81.971 107.788)">
      <path id="Path-49" data-name="Path" d="M5.729,1.1c-4.039,1.683-8.149,7.383-4,15.511s18.689,3.018,19.295-2.966C21.8,6,16.082-3.21,5.729,1.1Z" transform="translate(1.871 0.772)" fill="#fcd434"/>
      <path id="Path-50" data-name="Path" d="M4.808,11.921A11.446,11.446,0,0,1,7.183,0Q6.472.219,5.729.527c-4.039,1.683-8.149,7.383-4,15.511,2.306,4.518,7.823,4.946,12.372,3.407A10.485,10.485,0,0,1,4.808,11.921Z" transform="translate(1.872 1.348)" fill="#fdbd1a"/>
      <path id="Path-51" data-name="Path" d="M.339,3.667A9.116,9.116,0,0,1,6.164.267C10.38-.6,10.23.861,7.865,1.488S-1.628,6.579.339,3.667Z" transform="translate(4.6 1.65)" fill="#f7f7f7" opacity="0.4"/>
      <path id="Path-52" data-name="Path" d="M8.448,9.012s1.96-7.252-1.03-8.7-3.7,2.614-3.7,2.614S.084,3.378,0,6.06,8.448,9.012,8.448,9.012Z" transform="translate(0.381 1.373)" fill="#f24d54"/>
      <path id="Path-53" data-name="Path" d="M3.985,7.592S-.535,4.215.053,2.1,2.892-.719,4.375.851C6.525-.8,9.122.277,8.67,2.464S3.985,7.592,3.985,7.592Z" transform="translate(11.732 0.028)" fill="#f24d54"/>
      <path id="Path-54" data-name="Path" d="M0,3.355c-.041.4,1.93,2.127,5.249.765S8.056.394,7.723.033s-2.7,2.324-4.378,2.639S.072,2.663,0,3.355Z" transform="translate(9.948 11.725)" fill="#782d10"/>
      <path id="Path-55" data-name="Path" d="M0,1.983S.814-.307,2.435.035A4.343,4.343,0,0,1,0,1.983Z" transform="translate(14.793 13.729)" fill="#f24d54"/>
    </g>
    <g id="Group-3" data-name="Group" transform="translate(224.613)">
      <path id="Path-56" data-name="Path" d="M4.643,2.581C.5,5.366-2.832,12.665,3.627,20.839s21.6-.793,20.938-7.628C23.724,4.472,15.27-4.56,4.643,2.581Z" transform="translate(0.587 0.383)" fill="#fcd434"/>
      <path id="Path-57" data-name="Path" d="M6.155,13.875A13.068,13.068,0,0,1,6.152,0q-.746.4-1.51.915C.5,3.7-2.832,11,3.627,19.173c3.59,4.543,9.862,3.791,14.611,1.051A11.967,11.967,0,0,1,6.155,13.875Z" transform="translate(0.586 2.048)" fill="#fdbd1a"/>
      <path id="Path-58" data-name="Path" d="M.223,5.973S1.456,2.775,5.984.866s4.685-.243,2.177.988S-1.329,9.672.223,5.973Z" transform="translate(2.795 1.437)" fill="#f7f7f7" opacity="0.4"/>
      <path id="Path-59" data-name="Path" d="M0,7.646c.136,1.4,4.552,4.555,9.56,2.238s6.053-8.5,4.419-9.845C13.243-.567-.144,6.142,0,7.646Z" transform="translate(7.423 9.98)" fill="#782d10"/>
      <path id="Path-60" data-name="Path" d="M0,5.713s.436,1.044,1.106.908,9.112-4.781,9.758-5.064S11.009,0,11.009,0A22.951,22.951,0,0,0,5.066,2.608C1.352,4.748,0,5.713,0,5.713Z" transform="translate(9.144 10.772)" fill="#f7f7f7"/>
      <path id="Path-61" data-name="Path" d="M0,3.123S3.807-.667,5.717.1c1.261.465,1.244,1.06,1.244,1.06S3.6,4.075,0,3.123Z" transform="translate(12.02 16.933)" fill="#f45b51"/>
      <path id="Path-62" data-name="Path" d="M.331,5.39C.895,5.437,2.2,2.461,3.5,2.106S5.98,2.3,6.479,1.935,3.939-.612,2.438.167-.721,5.3.331,5.39Z" transform="translate(3.97 8.838)" fill="#782d10"/>
      <path id="Path-63" data-name="Path" d="M.527,4.214c.7-.1,1.314-2.058,1.983-2.3s2.069.314,2.69-.12S3.019-.572,1.391.167-.311,4.332.527,4.214Z" transform="translate(15.151 3.58)" fill="#782d10"/>
    </g>
    <g id="Group-4" data-name="Group" transform="translate(347.246 46.472)">
      <path id="Path-64" data-name="Path" d="M11.921.726C8.776-.828,3.165-.308.438,6.483S8.462,19.369,12.4,16.582C17.431,13.018,19.985,4.711,11.921.726Z" transform="translate(0.512 0.289)" fill="#fcd434"/>
      <path id="Path-65" data-name="Path" d="M4.55,6.175a9.18,9.18,0,0,1,8.457-4.847q-.507-.314-1.085-.6C8.776-.828,3.165-.308.438,6.483c-1.516,3.775,1.133,7.335,4.461,9.274A8.409,8.409,0,0,1,4.55,6.175Z" transform="translate(0.512 0.289)" fill="#fdbd1a"/>
      <path id="Path-66" data-name="Path" d="M.694.024A7.313,7.313,0,0,1,5.818,1.753C8.563,3.846,7.6,4.524,5.977,3.425S-2.1.37.694.024Z" transform="translate(8.256 1.196)" fill="#f7f7f7" opacity="0.4"/>
      <path id="Path-67" data-name="Path" d="M.565.045C-.242.617-.622,4.41,2.539,6.654s7.3.72,7.545-.744C10.194,5.249,1.431-.569.565.045Z" transform="translate(3.697 7.428)" fill="#782d10"/>
      <path id="Path-68" data-name="Path" d="M.275,0S-.209.631.108.991,6.2,4.876,6.6,5.171s1-.456,1-.456A16.123,16.123,0,0,0,3.937,2C1.336.486.275,0,.275,0Z" transform="translate(5.282 8.124)" fill="#f7f7f7"/>
      <path id="Path-69" data-name="Path" d="M0,0S3.64,1,3.837,2.43c.156.931-.212,1.129-.212,1.129S.678,2.528,0,0Z" transform="translate(4.386 11.124)" fill="#f45b51"/>
      <path id="Path-70" data-name="Path" d="M0,1.013c-.009.295,1.252.19,3.634,2.038.23.07.6-.321.141-1.44S2.594-.091,2.449.012s.423.989.5,1.6C1.317.736.01.693,0,1.013Z" transform="translate(5.606 4.216)" fill="#782d10"/>
      <path id="Path-71" data-name="Path" d="M2.83.455C2.969.175,1.133-.323.026.3-.255.432,1.81,1.308,2.751,2.651c.2.356.582.06-.11-.866A6.106,6.106,0,0,0,1.307.566S2.7.723,2.83.455Z" transform="translate(12.18 8.642)" fill="#782d10"/>
    </g>
    <g id="Group-5" data-name="Group" transform="translate(36.145 7.1)">
      <path id="Path-72" data-name="Path" d="M5.495,1.077C1.609,2.71-2.335,8.213,1.684,16.033S19.7,18.888,20.265,13.121C20.99,5.748,15.457-3.108,5.495,1.077Z" transform="translate(0.202 0.301)" fill="#fcd434"/>
      <path id="Path-73" data-name="Path" d="M4.639,11.491A11.028,11.028,0,0,1,6.894,0q-.684.213-1.4.512C1.609,2.144-2.335,7.648,1.684,15.467c2.234,4.347,7.55,4.743,11.93,3.248A10.1,10.1,0,0,1,4.639,11.491Z" transform="translate(0.203 0.866)" fill="#fdbd1a"/>
      <path id="Path-74" data-name="Path" d="M.325,3.555A8.785,8.785,0,0,1,5.927.263c4.06-.844,3.92.56,1.643,1.172S-1.562,6.366.325,3.555Z" transform="translate(2.817 1.146)" fill="#f7f7f7" opacity="0.4"/>
      <ellipse id="Oval-4" data-name="Oval" cx="1.145" cy="1.528" rx="1.145" ry="1.528" transform="translate(5.053 7.58) rotate(-18.51)" fill="#782d10"/>
      <ellipse id="Oval-5" data-name="Oval" cx="1.145" cy="1.527" rx="1.145" ry="1.527" transform="translate(13.167 5.116) rotate(-14.12)" fill="#782d10"/>
      <path id="Path-75" data-name="Path" d="M.015,3.4C-.224,3.673,2.4,5.179,4.832,4.466S8.292.189,7.784.007,6.691,3.062,4.49,3.657C2,4.332.54,2.789.015,3.4Z" transform="translate(8.696 10.738)" fill="#782d10"/>
    </g>
    <path id="Path-76" data-name="Path" d="M.489.828S5.1.671,6.187,0c0,0,3.681.648,4.609,1.431S11.847,3.614,9,3.614.489,3.2.489,3.2-.611,1.79.489.828Z" transform="translate(54.18 161.275)" fill="#0e538c"/>
    <path id="Path-77" data-name="Path" d="M1.374,0s2.6,1.112,3.5.742c0,0,.412,2.163,3.378,2.761s2.493,2.2.8,2.389-7.663-.6-8.61-1.854A2.956,2.956,0,0,1,1.374,0Z" transform="translate(33.755 158.544)" fill="#0e538c"/>
  </g>
</svg>
