<?xml version="1.0" encoding="utf-8"?>

<svg version="1.1" id="Layer_1" 
    xmlns="http://www.w3.org/2000/svg" 
    xmlns:xlink="http://www.w3.org/1999/xlink" x="0px" y="0px"
    viewBox="0.0 0.0 175.0 54.0" >
    <path fill="#fff2f4f6" d="M0.881,31.795C0.601,31.795 0.38,31.734 0.26,31.614C0.12,31.494 0.06,31.273 0.06,30.972L0.06,8.746C0.06,8.425 0.12,8.224 0.26,8.104C0.4,7.984 0.601,7.924 0.881,7.924L3.263,7.924C3.763,7.924 4.084,8.164 4.184,8.646L4.424,9.508C5.085,8.866 5.885,8.345 6.826,7.984C7.767,7.603 8.728,7.422 9.709,7.422C11.851,7.422 13.553,8.204 14.814,9.789C16.075,11.374 16.695,13.5 16.695,16.188C16.695,18.034 16.375,19.638 15.775,21.023C15.154,22.407 14.313,23.45 13.252,24.212C12.191,24.954 10.97,25.335 9.589,25.335C8.688,25.335 7.807,25.195 7.006,24.894C6.186,24.613 5.485,24.212 4.905,23.691L4.905,30.972C4.905,31.273 4.844,31.494 4.724,31.614C4.604,31.734 4.384,31.795 4.084,31.795L0.881,31.795ZM8.168,21.644C9.409,21.644 10.33,21.223 10.91,20.381C11.491,19.538 11.791,18.214 11.791,16.389C11.791,14.543 11.511,13.199 10.93,12.357C10.35,11.514 9.429,11.093 8.168,11.093C7.006,11.093 5.925,11.394 4.905,11.996L4.905,20.762C5.885,21.344 6.966,21.644 8.168,21.644Z" stroke="#00000000" stroke-width="1.0" />
    <path fill="#fff2f4f6" d="M20.719,24.934C20.439,24.934 20.219,24.874 20.099,24.734C19.958,24.593 19.898,24.393 19.898,24.112L19.898,8.766C19.898,8.445 19.958,8.245 20.099,8.124C20.239,8.004 20.439,7.944 20.719,7.944L23.121,7.944C23.622,7.944 23.942,8.184 24.042,8.666L24.483,10.471C25.363,9.488 26.204,8.806 26.985,8.385C27.766,7.964 28.606,7.763 29.487,7.763L29.948,7.763C30.248,7.763 30.488,7.823 30.608,7.944C30.748,8.064 30.809,8.285 30.809,8.586L30.809,11.374C30.809,11.655 30.748,11.875 30.628,11.996C30.508,12.136 30.288,12.196 29.988,12.196C29.828,12.196 29.627,12.176 29.387,12.156C29.147,12.136 28.827,12.116 28.466,12.116C27.966,12.116 27.345,12.196 26.605,12.337C25.884,12.477 25.243,12.658 24.743,12.878L24.743,24.072C24.743,24.352 24.683,24.573 24.563,24.693C24.443,24.834 24.222,24.894 23.922,24.894L20.719,24.934Z" stroke="#00000000" stroke-width="1.0" />
    <path fill="#fff2f4f6" d="M35.393,5.296C34.552,5.296 33.871,5.055 33.371,4.594C32.87,4.132 32.61,3.49 32.61,2.688C32.61,1.886 32.87,1.264 33.371,0.782C33.871,0.321 34.552,0.08 35.393,0.08C36.234,0.08 36.914,0.321 37.415,0.782C37.915,1.244 38.175,1.886 38.175,2.688C38.175,3.49 37.915,4.112 37.415,4.594C36.914,5.055 36.234,5.296 35.393,5.296ZM33.791,24.934C33.511,24.934 33.291,24.874 33.171,24.734C33.031,24.593 32.971,24.393 32.971,24.112L32.971,8.766C32.971,8.445 33.031,8.245 33.171,8.124C33.311,8.004 33.511,7.944 33.791,7.944L36.974,7.944C37.274,7.944 37.495,8.004 37.615,8.124C37.735,8.245 37.795,8.465 37.795,8.766L37.795,24.112C37.795,24.393 37.735,24.613 37.615,24.734C37.495,24.874 37.274,24.934 36.974,24.934L33.791,24.934Z" stroke="#00000000" stroke-width="1.0" />
    <path fill="#fff2f4f6" d="M42.7,24.934C42.419,24.934 42.199,24.874 42.079,24.734C41.939,24.593 41.879,24.393 41.879,24.112L41.879,8.766C41.879,8.445 41.939,8.245 42.079,8.124C42.219,8.004 42.419,7.944 42.7,7.944L45.102,7.944C45.602,7.944 45.922,8.184 46.023,8.666L46.283,9.568C47.464,8.786 48.505,8.245 49.466,7.924C50.407,7.603 51.368,7.442 52.368,7.442C54.37,7.442 55.772,8.144 56.592,9.568C57.713,8.806 58.794,8.265 59.775,7.944C60.756,7.623 61.797,7.442 62.858,7.442C64.4,7.442 65.621,7.883 66.461,8.746C67.322,9.609 67.743,10.832 67.743,12.377L67.743,24.132C67.743,24.413 67.683,24.633 67.563,24.754C67.442,24.894 67.222,24.954 66.922,24.954L63.739,24.954C63.459,24.954 63.239,24.894 63.118,24.754C62.998,24.613 62.918,24.413 62.918,24.132L62.918,13.44C62.918,11.936 62.238,11.173 60.896,11.173C59.695,11.173 58.494,11.454 57.273,12.036L57.273,24.132C57.273,24.413 57.213,24.633 57.093,24.754C56.973,24.894 56.753,24.954 56.452,24.954L53.269,24.954C52.989,24.954 52.769,24.894 52.649,24.754C52.509,24.613 52.449,24.413 52.449,24.132L52.449,13.44C52.449,11.936 51.768,11.173 50.427,11.173C49.186,11.173 47.964,11.474 46.763,12.076L46.763,24.132C46.763,24.413 46.703,24.633 46.583,24.754C46.463,24.894 46.243,24.954 45.943,24.954L42.7,24.934Z" stroke="#00000000" stroke-width="1.0" />
    <path fill="#fff2f4f6" d="M79.153,25.456C76.451,25.456 74.389,24.814 72.727,23.129C71.646,22.026 70.625,19.959 70.625,16.449C70.625,13.6 71.526,11.434 72.988,9.869C74.449,8.285 76.691,7.563 78.793,7.563C81.435,7.563 82.997,8.164 84.198,9.368C84.398,9.568 85.599,10.812 85.599,12.818C85.599,13.5 85.619,14.222 85.159,15.225C84.838,15.907 84.358,16.329 84.218,16.449C82.256,18.254 78.413,18.134 77.111,18.054L75.009,17.733C75.15,19.197 75.55,20.341 76.451,20.982C77.292,21.604 78.212,21.845 80.094,21.845C81.035,21.845 82.296,21.664 83.918,21.223C83.998,21.203 84.178,21.163 84.238,21.143C84.278,21.143 84.438,21.123 84.538,21.163C84.718,21.223 84.919,21.384 84.919,21.885L84.919,23.41C84.919,23.771 84.879,24.011 84.778,24.152C84.678,24.292 84.478,24.433 84.198,24.553C82.476,25.155 80.915,25.456 79.153,25.456L79.153,25.456ZM81.175,12.979C81.175,11.354 80.034,10.892 78.633,10.892C77.712,10.892 76.811,11.233 76.19,11.895C75.59,12.557 75.23,13.54 75.069,14.804C75.069,14.804 77.552,15.265 79.353,14.965C80.294,14.804 81.175,14.283 81.175,12.979L81.175,12.979Z" stroke="#00000000" stroke-width="1.0" />
    <path fill="#fff2f4f6" d="M148.557,25.456C145.855,25.456 143.793,24.814 142.132,23.129C141.05,22.026 140.03,19.959 140.03,16.449C140.03,13.6 140.93,11.434 142.392,9.869C143.853,8.285 146.095,7.563 148.197,7.563C150.84,7.563 152.401,8.164 153.602,9.368C153.802,9.568 155.004,10.812 155.004,12.818C155.004,13.5 155.023,14.222 154.563,15.225C154.243,15.907 153.762,16.329 153.622,16.449C151.66,18.254 147.817,18.134 146.516,18.054L144.414,17.733C144.554,19.197 144.954,20.341 145.855,20.982C146.696,21.604 147.617,21.845 149.498,21.845C150.439,21.845 151.7,21.664 153.322,21.223C153.402,21.203 153.582,21.163 153.642,21.143C153.682,21.143 153.842,21.123 153.942,21.163C154.123,21.223 154.323,21.384 154.323,21.885L154.323,23.41C154.323,23.771 154.283,24.011 154.183,24.152C154.083,24.292 153.882,24.433 153.602,24.553C151.901,25.155 150.319,25.456 148.557,25.456L148.557,25.456ZM150.579,12.979C150.579,11.354 149.438,10.892 148.037,10.892C147.116,10.892 146.215,11.233 145.595,11.895C144.994,12.557 144.634,13.54 144.474,14.804C144.474,14.804 146.956,15.265 148.758,14.965C149.699,14.804 150.579,14.283 150.579,12.979L150.579,12.979Z" stroke="#00000000" stroke-width="1.0" />
    <path fill="#fff2f4f6" d="M100.193,24.934C99.972,24.934 99.792,24.914 99.652,24.854C99.512,24.794 99.392,24.714 99.292,24.593C99.192,24.473 99.092,24.292 99.012,24.072L93.326,9.248C93.266,9.067 93.206,8.907 93.166,8.786C93.126,8.646 93.106,8.525 93.106,8.425C93.106,8.084 93.326,7.924 93.767,7.924L97.09,7.924C97.45,7.924 97.71,7.984 97.871,8.124C98.031,8.265 98.171,8.485 98.251,8.786L101.674,20.581L105.157,8.786C105.237,8.465 105.377,8.245 105.538,8.124C105.698,8.004 105.958,7.924 106.318,7.924L109.541,7.924C109.982,7.924 110.202,8.084 110.202,8.425C110.202,8.545 110.182,8.666 110.142,8.786C110.102,8.927 110.042,9.067 109.982,9.248L104.296,24.072C104.216,24.292 104.116,24.473 104.016,24.593C103.916,24.714 103.796,24.814 103.676,24.854C103.556,24.894 103.356,24.934 103.115,24.934L100.193,24.934Z" stroke="#00000000" stroke-width="1.0" />
    <path fill="#fff2f4f6" d="M114.706,5.296C113.865,5.296 113.185,5.055 112.684,4.594C112.184,4.132 111.924,3.49 111.924,2.688C111.924,1.886 112.184,1.264 112.684,0.782C113.185,0.321 113.865,0.08 114.706,0.08C115.547,0.08 116.228,0.321 116.728,0.782C117.228,1.244 117.489,1.886 117.489,2.688C117.489,3.49 117.228,4.112 116.728,4.594C116.208,5.055 115.547,5.296 114.706,5.296ZM113.105,24.934C112.824,24.934 112.604,24.874 112.464,24.734C112.324,24.593 112.264,24.393 112.264,24.112L112.264,8.766C112.264,8.445 112.324,8.245 112.464,8.124C112.604,8.004 112.804,7.944 113.105,7.944L116.288,7.944C116.588,7.944 116.808,8.004 116.928,8.124C117.048,8.245 117.108,8.465 117.108,8.766L117.108,24.112C117.108,24.393 117.048,24.613 116.928,24.734C116.808,24.874 116.588,24.934 116.288,24.934L113.105,24.934Z" stroke="#00000000" stroke-width="1.0" />
    <path fill="#fff2f4f6" d="M127.278,25.295C125.836,25.295 124.575,24.914 123.514,24.172C122.453,23.43 121.633,22.387 121.072,21.083C120.511,19.759 120.231,18.234 120.231,16.509C120.231,13.761 120.892,11.554 122.193,9.909C123.494,8.265 125.236,7.422 127.378,7.422C129.119,7.422 130.641,7.924 131.922,8.927L131.922,1.143C131.922,0.822 131.982,0.622 132.122,0.501C132.262,0.381 132.463,0.321 132.763,0.321L135.946,0.321C136.246,0.321 136.466,0.381 136.586,0.501C136.706,0.622 136.767,0.843 136.767,1.143L136.767,24.112C136.767,24.393 136.706,24.613 136.586,24.734C136.466,24.874 136.246,24.934 135.946,24.934L133.283,24.934C133.023,24.934 132.823,24.874 132.663,24.774C132.523,24.653 132.423,24.473 132.342,24.212L132.142,23.45C130.801,24.673 129.16,25.295 127.278,25.295ZM128.879,21.644C129.94,21.644 130.961,21.323 131.942,20.722L131.942,11.936C130.981,11.374 129.9,11.113 128.659,11.113C127.478,11.113 126.617,11.554 126.037,12.437C125.456,13.32 125.176,14.644 125.176,16.409C125.176,18.194 125.476,19.498 126.097,20.381C126.677,21.203 127.618,21.644 128.879,21.644L128.879,21.644Z" stroke="#00000000" stroke-width="1.0" />
    <path fill="#fff2f4f6" d="M165.693,25.436C163.051,25.436 160.989,24.633 159.508,23.049C158.026,21.464 157.286,19.257 157.286,16.409C157.286,13.58 158.026,11.394 159.508,9.809C160.989,8.224 163.051,7.422 165.693,7.422C168.336,7.422 170.398,8.224 171.879,9.809C173.36,11.394 174.101,13.6 174.101,16.409C174.101,19.257 173.36,21.464 171.879,23.049C170.398,24.633 168.336,25.436 165.693,25.436ZM165.693,21.705C168.015,21.705 169.177,19.939 169.177,16.409C169.177,12.898 168.015,11.153 165.693,11.153C163.371,11.153 162.21,12.898 162.21,16.409C162.21,19.939 163.371,21.705 165.693,21.705Z" stroke="#00000000" stroke-width="1.0" />
    <path fill="#fff2f4f6" d="M42.04,33.906L42.04,34.19C42.08,34.434 42.201,34.677 42.422,34.9C54.313,46.582 70.02,53.599 87.475,53.599C99.929,53.599 114.391,49.34 124.353,41.329C126,39.991 124.594,38.003 122.907,38.794C111.719,43.966 99.567,46.46 88.52,46.46C72.129,46.46 56.261,41.573 43.446,33.44C43.225,33.298 43.004,33.237 42.803,33.237C42.402,33.237 42.1,33.521 42.04,33.906" stroke="#00000000" stroke-width="1.0" />
    <path fill="#fff2f4f6" d="M116.158,35.164C115.797,35.427 115.616,35.752 115.576,36.016L115.576,36.178C115.616,36.482 115.897,36.685 116.399,36.624C119.613,36.198 126.764,35.286 128.049,37.05C129.335,38.814 126.623,46.116 125.438,49.381C125.076,50.354 125.86,50.76 126.683,50.009C132.046,45.162 133.412,35.002 132.328,33.521C131.805,32.811 129.355,32.162 126.302,32.162C123.008,32.183 119.091,32.933 116.158,35.164" stroke="#00000000" stroke-width="1.0" />
</svg>